<svg width="44" height="44" viewBox="0 0 44 44" fill="none" xmlns="http://www.w3.org/2000/svg">
<path d="M6.375 6.37495C6.375 4.71735 7.03348 3.12764 8.20558 1.95554C9.37768 0.783434 10.9674 0.124954 12.625 0.124954C14.2826 0.124954 15.8723 0.783434 17.0444 1.95554C18.2165 3.12764 18.875 4.71735 18.875 6.37495C18.875 8.03256 18.2165 9.62227 17.0444 10.7944C15.8723 11.9665 14.2826 12.625 12.625 12.625C10.9674 12.625 9.37768 11.9665 8.20558 10.7944C7.03348 9.62227 6.375 8.03256 6.375 6.37495ZM12.625 3.24995C11.7962 3.24995 11.0013 3.57919 10.4153 4.16524C9.82924 4.7513 9.5 5.54615 9.5 6.37495C9.5 7.20375 9.82924 7.99861 10.4153 8.58466C11.0013 9.17071 11.7962 9.49995 12.625 9.49995C13.4538 9.49995 14.2487 9.17071 14.8347 8.58466C15.4208 7.99861 15.75 7.20375 15.75 6.37495C15.75 5.54615 15.4208 4.7513 14.8347 4.16524C14.2487 3.57919 13.4538 3.24995 12.625 3.24995ZM27.5594 11.325C26.9047 10.8256 26.3551 10.2017 25.9422 9.48926C25.5294 8.77681 25.2614 7.9898 25.1536 7.17345C25.0459 6.3571 25.1005 5.5275 25.3144 4.73233C25.5282 3.93716 25.8971 3.19208 26.3998 2.53992C26.9025 1.88775 27.5292 1.34135 28.2437 0.932115C28.9582 0.522879 29.7466 0.258871 30.5635 0.155263C31.3804 0.0516552 32.2097 0.110489 33.0037 0.328384C33.7978 0.546279 34.541 0.91894 35.1906 1.42495C36.4697 2.44809 37.296 3.93244 37.4917 5.55861C37.6875 7.18478 37.237 8.82281 36.2373 10.1203C35.2376 11.4177 33.7685 12.2708 32.1462 12.4961C30.5239 12.7214 28.8748 12.3009 27.5594 11.325ZM31.375 3.24995C30.5462 3.24995 29.7513 3.57919 29.1653 4.16524C28.5792 4.7513 28.25 5.54615 28.25 6.37495C28.25 7.20375 28.5792 7.99861 29.1653 8.58466C29.7513 9.17071 30.5462 9.49995 31.375 9.49995C32.2038 9.49995 32.9987 9.17071 33.5847 8.58466C34.1708 7.99861 34.5 7.20375 34.5 6.37495C34.5 5.54615 34.1708 4.7513 33.5847 4.16524C32.9987 3.57919 32.2038 3.24995 31.375 3.24995ZM4.8125 15.75H13.1563C12.8125 16.7281 12.625 17.7812 12.625 18.875H4.8125C4.3981 18.875 4.00067 19.0396 3.70765 19.3326C3.41462 19.6256 3.25 20.0231 3.25 20.4375C3.25 22.9906 4.26563 24.8843 5.86875 26.1718C6.60625 26.7656 7.49063 27.2437 8.49063 27.5937C7.75628 28.3743 7.19038 29.2976 6.82812 30.3062C5.77917 29.8848 4.79703 29.3132 3.9125 28.6093C1.5625 26.7187 0.125 23.925 0.125 20.4375C0.125 19.1943 0.61886 18.002 1.49794 17.1229C2.37701 16.2438 3.5693 15.75 4.8125 15.75ZM16.5875 15.75C15.7587 17.1863 15.5344 18.893 15.964 20.4947C16.3936 22.0963 17.4418 23.4618 18.8781 24.2906C20.3144 25.1194 22.0212 25.3437 23.6228 24.9141C25.2245 24.4845 26.5899 23.4363 27.4188 22C28.2476 20.5636 28.4718 18.8569 28.0423 17.2552C27.6127 15.6536 26.5644 14.2881 25.1281 13.4593C23.6918 12.6305 21.9851 12.4062 20.3834 12.8358C18.7817 13.2654 17.4163 14.3136 16.5875 15.75ZM21.3 15.8281C21.7579 15.7246 22.2331 15.7254 22.6907 15.8302C23.1482 15.9351 23.5764 16.1413 23.9435 16.4338C24.3107 16.7262 24.6075 17.0974 24.812 17.52C25.0165 17.9425 25.1234 18.4056 25.125 18.875C25.1248 19.4629 24.9586 20.0389 24.6457 20.5367C24.3328 21.0345 23.8858 21.4339 23.3561 21.6891C22.8264 21.9443 22.2354 22.0448 21.6511 21.9791C21.0668 21.9135 20.5129 21.6843 20.0529 21.318C19.593 20.9516 19.2458 20.463 19.0512 19.9081C18.8565 19.3533 18.8224 18.7548 18.9526 18.1814C19.0829 17.6081 19.3722 17.0831 19.7875 16.6668C20.2027 16.2505 20.727 15.9598 21.3 15.8281ZM38.1312 26.1718C37.3937 26.7656 36.5094 27.2437 35.5094 27.5937C36.2426 28.3746 36.8074 29.2978 37.1688 30.3062C38.2313 29.8718 39.2156 29.3062 40.0875 28.6093C42.4375 26.7187 43.875 23.925 43.875 20.4375C43.875 19.1943 43.3811 18.002 42.5021 17.1229C41.623 16.2438 40.4307 15.75 39.1875 15.75H30.8437C31.1875 16.7281 31.375 17.7812 31.375 18.875H39.1875C39.6019 18.875 39.9993 19.0396 40.2924 19.3326C40.5854 19.6256 40.75 20.0231 40.75 20.4375C40.75 22.9906 39.7344 24.8843 38.1312 26.1718ZM29.8125 28.25C31.0557 28.25 32.248 28.7438 33.1271 29.6229C34.0061 30.502 34.5 31.6943 34.5 32.9375C34.5 36.425 33.0656 39.2187 30.7125 41.1093C28.3969 42.9687 25.2906 43.875 22 43.875C18.7094 43.875 15.6031 42.9687 13.2875 41.1093C10.9375 39.2187 9.5 36.425 9.5 32.9375C9.49835 32.3214 9.61847 31.7111 9.85346 31.1417C10.0884 30.5722 10.4337 30.0548 10.8693 29.6192C11.3049 29.1836 11.8223 28.8384 12.3917 28.6034C12.9612 28.3684 13.5715 28.2483 14.1875 28.25H29.8125ZM29.8125 31.375H14.1875C13.7731 31.375 13.3757 31.5396 13.0826 31.8326C12.7896 32.1256 12.625 32.5231 12.625 32.9375C12.625 35.4906 13.6406 37.3843 15.2437 38.6718C16.8875 39.9906 19.25 40.75 22 40.75C24.75 40.75 27.1125 39.9906 28.7562 38.6718C30.3594 37.3843 31.375 35.4906 31.375 32.9375C31.375 32.5231 31.2104 32.1256 30.9174 31.8326C30.6243 31.5396 30.2269 31.375 29.8125 31.375Z" fill="black"/>
</svg>
