<svg width="81" height="81" viewBox="0 0 81 81" fill="none" xmlns="http://www.w3.org/2000/svg">
<path d="M39.634 3.50001C40.0189 2.83333 40.9811 2.83334 41.366 3.5L72.9759 58.25C73.3608 58.9167 72.8797 59.75 72.1099 59.75H8.89008C8.12027 59.75 7.63915 58.9167 8.02405 58.25L39.634 3.50001Z" stroke="#BD6AFF" stroke-width="2"/>
<path d="M39.1952 7.1909C39.7781 6.2045 41.207 6.20933 41.7831 7.19966L70.319 56.2457C70.9008 57.2457 70.1794 58.5 69.0225 58.5H11.5049C10.3434 58.5 9.62264 57.2368 10.2135 56.2369L39.1952 7.1909Z" stroke="#BD6AFF"/>
<path d="M39.6305 12.5554C40.0138 11.8806 40.9862 11.8806 41.3695 12.5554L64.3471 53.0061C64.7257 53.6727 64.2442 54.5 63.4776 54.5H17.5224C16.7558 54.5 16.2743 53.6727 16.6529 53.0061L39.6305 12.5554Z" stroke="#BD6AFF" stroke-width="2"/>
<path d="M39.2046 16.2398C39.7816 15.2417 41.222 15.2405 41.8006 16.2377L61.8246 50.7472C62.4049 51.7472 61.6833 53 60.5272 53H20.5526C19.3975 53 18.6759 51.7493 19.254 50.7493L39.2046 16.2398Z" stroke="#BD6AFF"/>
<path d="M39.6288 22.5824C40.0113 21.9037 40.9887 21.9037 41.3712 22.5824L55.7017 48.009C56.0774 48.6756 55.5957 49.5 54.8305 49.5H26.1695C25.4043 49.5 24.9226 48.6756 25.2983 48.009L39.6288 22.5824Z" stroke="#BD6AFF" stroke-width="2"/>
<path d="M39.1961 26.3047C39.7712 25.2933 41.2288 25.2933 41.8039 26.3047L52.866 45.7585C53.4346 46.7585 52.7123 48 51.562 48H29.438C28.2877 48 27.5654 46.7585 28.134 45.7585L39.1961 26.3047Z" stroke="#BD6AFF"/>
<path d="M39.9309 32.8427C40.1241 32.5033 40.6145 32.5065 40.8032 32.8484L46.5493 43.2584C46.7333 43.5916 46.4922 44 46.1116 44H34.4398C34.0562 44 33.8155 43.586 34.0053 43.2527L39.9309 32.8427Z" fill="#BD6AFF" stroke="#BD6AFF" stroke-width="3"/>
<path d="M40.5 22L42.6651 25.75H38.3349L40.5 22Z" fill="#BD6AFF"/>
<path d="M40.5 22L42.6651 25.75H38.3349L40.5 22Z" fill="#BD6AFF"/>
<path d="M40.5 22L42.6651 25.75H38.3349L40.5 22Z" fill="#BD6AFF"/>
<path d="M40.5 12L42.6651 15.75H38.3349L40.5 12Z" fill="#BD6AFF"/>
<path d="M40.5 12L42.6651 15.75H38.3349L40.5 12Z" fill="#BD6AFF"/>
<path d="M40.5 12L42.6651 15.75H38.3349L40.5 12Z" fill="#BD6AFF"/>
<path d="M40.5 3L42.6651 6.75H38.3349L40.5 3Z" fill="#BD6AFF"/>
<path d="M40.5 3L42.6651 6.75H38.3349L40.5 3Z" fill="#BD6AFF"/>
<path d="M40.5 3L42.6651 6.75H38.3349L40.5 3Z" fill="#BD6AFF"/>
<path d="M27 46L30 48.5L25.504 50.0373L27 46Z" fill="#BD6AFF"/>
<path d="M18.5 51L21 54L16.5 54.5L18.5 51Z" fill="#BD6AFF"/>
<path d="M9.88354 56.4525L11.5 59.5L8 59.5L9.88354 56.4525Z" fill="#BD6AFF"/>
<path d="M53.6073 45.668L56.5 49L51.5 49L53.6073 45.668Z" fill="#BD6AFF"/>
<path d="M62.9253 50.5394L65 53.8714L60.818 53.8714L62.9253 50.5394Z" fill="#BD6AFF"/>
<path d="M70.9253 56.2798L73 59.6118L68.818 59.6118L70.9253 56.2798Z" fill="#BD6AFF"/>
</svg>
