<svg width="69" height="60" viewBox="0 0 69 60" fill="none" xmlns="http://www.w3.org/2000/svg">
<path d="M32.6273 30.8506C33.4002 29.493 35.3615 29.5058 36.1164 30.8735L41.8625 41.2835C42.5983 42.6165 41.6341 44.25 40.1116 44.25H28.4398C26.9056 44.25 25.9427 42.5939 26.7017 41.2606L32.6273 30.8506Z" fill="#BD6AFF"/>
<path fill-rule="evenodd" clip-rule="evenodd" d="M36.2423 20.8414C35.4773 19.484 33.5227 19.4841 32.7577 20.8414L18.4271 46.268C17.6757 47.6012 18.6391 49.25 20.1695 49.25H48.8305C50.3609 49.25 51.3243 47.6012 50.5729 46.268L36.2423 20.8414ZM45.8162 47.25L45.8269 47.2332C45.7407 47.2443 45.6524 47.25 45.562 47.25H45.8162ZM21.4394 45.1162L21.3936 45.078L21.4549 44.9692C21.4479 45.0183 21.4427 45.0673 21.4394 45.1162ZM35.3693 25.3018L46.4313 44.7557C46.8104 45.4223 46.3289 46.25 45.562 46.25H23.438C22.6711 46.25 22.1896 45.4223 22.5687 44.7557L33.6307 25.3018C34.0141 24.6275 34.9859 24.6275 35.3693 25.3018Z" fill="#BD6AFF"/>
<path fill-rule="evenodd" clip-rule="evenodd" d="M36.239 10.8114C35.4724 9.46189 33.5276 9.46189 32.761 10.8114L9.78342 51.2622C9.02606 52.5955 9.98907 54.25 11.5224 54.25H57.4775C59.0109 54.25 59.9739 52.5955 59.2166 51.2622L36.239 10.8114ZM54.5272 52.25C54.7309 52.25 54.9245 52.2208 55.1053 52.1671L55.0529 52.25H54.5272ZM35.3681 15.2386L55.3921 49.7481C55.779 50.4148 55.298 51.25 54.5272 51.25H14.5526C13.7826 51.25 13.3015 50.4162 13.6869 49.7495L33.6374 15.24C34.0221 14.5746 34.9824 14.5739 35.3681 15.2386Z" fill="#BD6AFF"/>
<path fill-rule="evenodd" clip-rule="evenodd" d="M32.7679 1.75C33.5377 0.416669 35.4622 0.416664 36.232 1.75L67.842 56.5C68.6118 57.8333 67.6495 59.5 66.1099 59.5H2.89007C1.35047 59.5 0.388216 57.8333 1.15802 56.5L32.7679 1.75ZM36.0877 5.5H36.0844L36.0996 5.52065L36.0877 5.5ZM35.351 6.2011L63.8868 55.2471C64.2747 55.9138 63.7938 56.75 63.0225 56.75H5.50489C4.73059 56.75 4.25006 55.9079 4.64396 55.2413L33.6257 6.19527C34.0143 5.53766 34.9668 5.54088 35.351 6.2011Z" fill="#BD6AFF"/>
</svg>
