<svg width="42" height="44" viewBox="0 0 42 39" fill="none" xmlns="http://www.w3.org/2000/svg">
<path d="M35.5833 36.6667H6.41667C5.3116 36.6667 4.25179 36.2277 3.47039 35.4463C2.68899 34.6649 2.25 33.6051 2.25 32.5V13.75C2.25 12.645 2.68899 11.5852 3.47039 10.8038C4.25179 10.0224 5.3116 9.58337 6.41667 9.58337H35.5833C36.6884 9.58337 37.7482 10.0224 38.5296 10.8038C39.311 11.5852 39.75 12.645 39.75 13.75V32.5C39.75 33.6051 39.311 34.6649 38.5296 35.4463C37.7482 36.2277 36.6884 36.6667 35.5833 36.6667Z" stroke="black" stroke-width="4"/>
<path d="M30.375 24.1667C30.0988 24.1667 29.8338 24.057 29.6385 23.8616C29.4431 23.6663 29.3334 23.4013 29.3334 23.125C29.3334 22.8488 29.4431 22.5838 29.6385 22.3885C29.8338 22.1931 30.0988 22.0834 30.375 22.0834C30.6513 22.0834 30.9163 22.1931 31.1116 22.3885C31.307 22.5838 31.4167 22.8488 31.4167 23.125C31.4167 23.4013 31.307 23.6663 31.1116 23.8616C30.9163 24.057 30.6513 24.1667 30.375 24.1667Z" stroke="black" stroke-width="4" stroke-linecap="round" stroke-linejoin="round"/>
<path d="M33.5 9.58337V6.67295C33.4998 6.03442 33.3529 5.40446 33.0705 4.83174C32.7882 4.25902 32.378 3.75885 31.8716 3.36985C31.3653 2.98086 30.7763 2.71346 30.1501 2.58829C29.524 2.46312 28.8774 2.48353 28.2604 2.64795L5.34375 8.75837C4.45636 8.99485 3.67196 9.51787 3.11248 10.2461C2.553 10.9744 2.2498 11.8671 2.25 12.7855V13.75" stroke="black" stroke-width="4"/>
</svg>
